<svg xmlns="http://www.w3.org/2000/svg" width="1267.534" height="1269.522" viewBox="0 0 1267.534 1269.522">
  <path id="Path_20" data-name="Path 20" d="M267.128,514.768q0,77.543,28.83,145.144A370.6,370.6,0,0,0,493.792,857.746q67.6,28.83,145.144,28.83t144.15-28.83a373.261,373.261,0,0,0,196.84-197.834q28.83-67.6,28.83-145.144t-28.83-144.15a375.973,375.973,0,0,0-196.84-196.84q-66.608-28.83-144.15-28.83t-145.144,28.83a373.261,373.261,0,0,0-197.834,196.84Q267.128,437.225,267.128,514.768Zm-262.453,0q0-131.226,49.707-246.547t135.2-201.81q85.5-86.49,201.81-136.2t247.541-49.707q131.226,0,246.547,49.707T1086.3,66.411q85.5,86.49,135.2,201.81t49.707,246.547q0,131.227-49.707,246.547t-135.2,201.81q-85.5,86.49-200.816,136.2T638.936,1149.03q-131.227,0-247.541-49.707t-201.81-136.2q-85.5-86.49-135.2-201.81T4.675,514.768Z" transform="translate(-4.175 119.993)" fill="rgba(36,171,219,0.01)" stroke="#fff" stroke-width="1"/>
</svg>
