<svg xmlns="http://www.w3.org/2000/svg" width="165.184" height="49.552" viewBox="0 0 165.184 49.552"><defs><style>.a{fill:#26a9e1;}.b{fill:#fff;}</style></defs><path class="a" d="M551.017,215.489a18.967,18.967,0,0,1,4.084,6.029,18.633,18.633,0,0,1,1.518,6.923,19.7,19.7,0,0,1-1.166,7.039,16.592,16.592,0,0,1-3.968,6.224l-.857.857a20.975,20.975,0,0,1-5.757,3.734,17.828,17.828,0,0,1-7.312,1.322,18.2,18.2,0,0,1-7.235-1.4,18.758,18.758,0,0,1-5.913-4.046,6.584,6.584,0,0,1-.972-1.633,3.824,3.824,0,0,1-.272-1.789,5.682,5.682,0,0,1,.465-1.829,4.325,4.325,0,0,1,1.09-1.518,4.668,4.668,0,0,1,3.539-1.478,4.923,4.923,0,0,1,3.616,1.478,8.007,8.007,0,0,0,5.679,2.1,7.442,7.442,0,0,0,3.423-.623,10.171,10.171,0,0,0,2.8-1.867,7.788,7.788,0,0,0,1.905-2.8,9.037,9.037,0,0,0,.661-3.423v-.467a9.122,9.122,0,0,0-.621-2.8,8.587,8.587,0,0,0-1.945-2.878,7.487,7.487,0,0,0-2.762-1.867,10.1,10.1,0,0,0-3.191-.7,7.7,7.7,0,0,0-3.191.545,7.97,7.97,0,0,0-2.762,1.789L518.884,235.4a4.852,4.852,0,0,1-3.578,1.4,4.711,4.711,0,0,1-3.578-1.478,5.026,5.026,0,0,1-1.594-3.5,4.269,4.269,0,0,1,1.362-3.5l12.836-12.836a19.467,19.467,0,0,1,6.222-4.123,18.986,18.986,0,0,1,7.041-1.44,18.164,18.164,0,0,1,7.079,1.362A19.583,19.583,0,0,1,551.017,215.489Z" transform="translate(-482.135 -198.351)"/><path class="b" d="M770.284,148.99a4.757,4.757,0,0,1,3.54,1.478,5.652,5.652,0,0,1,1.6,3.656v30.728a3.742,3.742,0,0,0,1.01,2.644A3.345,3.345,0,0,0,779,188.584a5.054,5.054,0,0,1,3.539,1.4,4.759,4.759,0,0,1,.312,6.807,5.372,5.372,0,0,1-3.307,1.751h-1.088a11.976,11.976,0,0,1-5.136-1.128,14.454,14.454,0,0,1-4.239-3,13.813,13.813,0,0,1-2.878-4.355,13.261,13.261,0,0,1-1.05-5.212V153.812a5.538,5.538,0,0,1,1.633-3.345A5.032,5.032,0,0,1,770.284,148.99Z" transform="translate(-688.722 -148.99)"/><circle class="a" cx="4.61" cy="4.61" r="4.61" transform="translate(51.607 0.211)"/><path class="b" d="M381.584,206.74a18.091,18.091,0,0,1,7.235,1.478,19.1,19.1,0,0,1,5.991,4.046,19.577,19.577,0,0,1,4.084,5.991,18.695,18.695,0,0,1,.04,14.663,19.563,19.563,0,0,1-4.006,5.951,18.551,18.551,0,0,1-13.341,5.523,19.133,19.133,0,0,1-7.312-1.4,18.325,18.325,0,0,1-5.991-3.928,18.555,18.555,0,0,1-5.523-13.419,18.49,18.49,0,0,1,5.407-13.185,19.371,19.371,0,0,1,5.991-4.046A20.282,20.282,0,0,1,381.584,206.74Zm0,10.19a8.463,8.463,0,0,0-3.345.661,8.956,8.956,0,0,0-2.762,1.829,8.6,8.6,0,0,0-1.905,2.762,8.508,8.508,0,0,0-.7,3.463,8.353,8.353,0,0,0,.7,3.385,9.176,9.176,0,0,0,4.667,4.7,8.048,8.048,0,0,0,3.345.7,8.308,8.308,0,0,0,3.383-.7,8.638,8.638,0,0,0,2.762-1.905,9.454,9.454,0,0,0,1.867-2.8,8.31,8.31,0,0,0,.7-3.385,8.989,8.989,0,0,0-2.568-6.068A8.727,8.727,0,0,0,381.584,216.93Z" transform="translate(-362.76 -195.771)"/><g transform="translate(2159 -7913.99)"><path class="b" d="M7.8-61.567a3.74,3.74,0,0,1-2-.468,2.588,2.588,0,0,1-1.068-1.346,6.037,6.037,0,0,1-.322-2.078v-4.433a5.85,5.85,0,0,1,.322-2.056A2.521,2.521,0,0,1,5.8-73.256a3.837,3.837,0,0,1,2-.454,3.863,3.863,0,0,1,2.026.454A2.568,2.568,0,0,1,10.9-71.947a5.732,5.732,0,0,1,.329,2.056v4.448a5.807,5.807,0,0,1-.329,2.056,2.676,2.676,0,0,1-1.068,1.346A3.719,3.719,0,0,1,7.8-61.567Zm0-1.595a1.154,1.154,0,0,0,.8-.234,1.178,1.178,0,0,0,.344-.644,4.261,4.261,0,0,0,.088-.892v-5.457a4.13,4.13,0,0,0-.088-.892A1.13,1.13,0,0,0,8.6-71.9a1.179,1.179,0,0,0-.8-.227,1.159,1.159,0,0,0-.775.227,1.11,1.11,0,0,0-.351.622,4.13,4.13,0,0,0-.088.892v5.457a4.635,4.635,0,0,0,.08.892,1.12,1.12,0,0,0,.344.644A1.158,1.158,0,0,0,7.8-63.161Zm5.018,1.434V-73.578h2.911a6.383,6.383,0,0,1,1.426.146,2.9,2.9,0,0,1,1.1.49,2.206,2.206,0,0,1,.71.929,3.8,3.8,0,0,1,.249,1.478,3.418,3.418,0,0,1-.2,1.229,1.858,1.858,0,0,1-.578.812,2.11,2.11,0,0,1-.951.4,2.452,2.452,0,0,1,1.163.49,2.243,2.243,0,0,1,.688.973,4.106,4.106,0,0,1,.227,1.448,4.84,4.84,0,0,1-.212,1.5,2.761,2.761,0,0,1-.629,1.083,2.639,2.639,0,0,1-1.039.651,4.374,4.374,0,0,1-1.456.219Zm2.165-1.522h.819a1.566,1.566,0,0,0,1.331-.475,2.484,2.484,0,0,0,.351-1.47,3.354,3.354,0,0,0-.168-1.163,1.237,1.237,0,0,0-.556-.666,2.09,2.09,0,0,0-1.031-.219h-.746Zm0-5.486h.732a2.12,2.12,0,0,0,.995-.19,1.027,1.027,0,0,0,.49-.585,3.035,3.035,0,0,0,.139-.995,1.859,1.859,0,0,0-.212-.973,1.069,1.069,0,0,0-.636-.468,3.931,3.931,0,0,0-1.083-.124h-.424Zm5.238,7.3v-1.522A4.256,4.256,0,0,0,21-63.015a.956.956,0,0,0,.475-.212.878.878,0,0,0,.241-.454,3.328,3.328,0,0,0,.073-.768v-9.129h2.151v9.217a4.926,4.926,0,0,1-.234,1.646,1.719,1.719,0,0,1-.812.966,3.459,3.459,0,0,1-1.631.315Zm5.516-.293V-73.578h4.974v1.522H27.907v3.409h2.209v1.507H27.907v3.921h2.838v1.492Zm9.451.161a3.539,3.539,0,0,1-2.041-.512,2.67,2.67,0,0,1-1.031-1.4,6.5,6.5,0,0,1-.293-2.041v-4.228a6.784,6.784,0,0,1,.293-2.107,2.526,2.526,0,0,1,1.031-1.375,3.705,3.705,0,0,1,2.041-.483,3.743,3.743,0,0,1,1.924.417A2.293,2.293,0,0,1,38.1-72.1a5.082,5.082,0,0,1,.293,1.8v.995H36.319V-70.33a7.352,7.352,0,0,0-.051-.907,1.126,1.126,0,0,0-.278-.651,1.044,1.044,0,0,0-.783-.241,1.111,1.111,0,0,0-.812.256,1.234,1.234,0,0,0-.329.688,5.857,5.857,0,0,0-.073.973v5.15A4.558,4.558,0,0,0,34.1-64a1.1,1.1,0,0,0,.373.629,1.168,1.168,0,0,0,.739.212.984.984,0,0,0,.768-.256,1.259,1.259,0,0,0,.285-.68,7,7,0,0,0,.059-.951v-1.068H38.4v.951a5.751,5.751,0,0,1-.278,1.865,2.425,2.425,0,0,1-.973,1.273A3.516,3.516,0,0,1,35.193-61.567Zm5.9-.161V-71.984H39.2v-1.595h5.911v1.595H43.254v10.256Zm8.354.161a3.7,3.7,0,0,1-2.048-.483,2.469,2.469,0,0,1-1.01-1.375,7.231,7.231,0,0,1-.278-2.136v-8.018h2.107v8.266a7.092,7.092,0,0,0,.073,1.046,1.472,1.472,0,0,0,.344.79,1.039,1.039,0,0,0,.812.3,1.031,1.031,0,0,0,.827-.3,1.586,1.586,0,0,0,.337-.79,6.459,6.459,0,0,0,.08-1.046v-8.266h2.092v8.018a7.231,7.231,0,0,1-.278,2.136,2.48,2.48,0,0,1-1,1.375A3.692,3.692,0,0,1,49.443-61.567Zm4.375-.161,2.37-11.851H58.5l2.37,11.851h-2L58.4-64.463H56.334l-.483,2.736Zm2.736-4.111h1.609l-.8-4.974ZM62-61.728V-73.578h2.165V-63.22h2.868v1.492Z" transform="translate(-2060.845 7992.133)"/><path class="b" d="M5.419-47.885a2.724,2.724,0,0,1-1.388-.324,2.043,2.043,0,0,1-.842-.95A4.08,4.08,0,0,1,2.87-50.7l1.445-.284a4.466,4.466,0,0,0,.131.944,1.367,1.367,0,0,0,.33.632.792.792,0,0,0,.586.222.658.658,0,0,0,.58-.245,1.059,1.059,0,0,0,.171-.62,1.677,1.677,0,0,0-.273-.99,4.26,4.26,0,0,0-.728-.774L3.951-52.835a3.488,3.488,0,0,1-.779-.939,2.587,2.587,0,0,1-.29-1.28,2.185,2.185,0,0,1,.637-1.684A2.458,2.458,0,0,1,5.26-57.33a2.584,2.584,0,0,1,1.081.2,1.719,1.719,0,0,1,.688.552,2.489,2.489,0,0,1,.381.8,4.735,4.735,0,0,1,.159.95l-1.434.25a4.89,4.89,0,0,0-.1-.774,1.076,1.076,0,0,0-.262-.535.735.735,0,0,0-.552-.193.7.7,0,0,0-.575.245.933.933,0,0,0-.2.609,1.4,1.4,0,0,0,.193.768,3.008,3.008,0,0,0,.558.62l1.149,1.013A4.761,4.761,0,0,1,7.325-51.7a2.861,2.861,0,0,1,.4,1.553,2.336,2.336,0,0,1-.29,1.172,2.079,2.079,0,0,1-.808.8A2.438,2.438,0,0,1,5.419-47.885Zm8.466-.125v-3.516l-1.866-5.7h1.57l1.138,3.653,1.07-3.653h1.536l-1.843,5.7v3.516Zm10.458.125a2.724,2.724,0,0,1-1.388-.324,2.043,2.043,0,0,1-.842-.95,4.08,4.08,0,0,1-.319-1.536l1.445-.284a4.467,4.467,0,0,0,.131.944,1.367,1.367,0,0,0,.33.632.792.792,0,0,0,.586.222.658.658,0,0,0,.58-.245,1.059,1.059,0,0,0,.171-.62,1.677,1.677,0,0,0-.273-.99,4.26,4.26,0,0,0-.728-.774l-1.161-1.024a3.488,3.488,0,0,1-.779-.939,2.587,2.587,0,0,1-.29-1.28,2.185,2.185,0,0,1,.637-1.684,2.458,2.458,0,0,1,1.741-.592,2.584,2.584,0,0,1,1.081.2,1.719,1.719,0,0,1,.688.552,2.489,2.489,0,0,1,.381.8,4.734,4.734,0,0,1,.159.95l-1.434.25a4.89,4.89,0,0,0-.1-.774,1.076,1.076,0,0,0-.262-.535.735.735,0,0,0-.552-.193.7.7,0,0,0-.575.245.933.933,0,0,0-.2.609,1.4,1.4,0,0,0,.193.768,3.008,3.008,0,0,0,.558.62l1.149,1.013a4.761,4.761,0,0,1,.973,1.121,2.861,2.861,0,0,1,.4,1.553,2.336,2.336,0,0,1-.29,1.172,2.079,2.079,0,0,1-.808.8A2.438,2.438,0,0,1,24.343-47.885Zm8.148-.125v-7.977H31.022v-1.24h4.6v1.24H34.175v7.977Zm7.9,0v-9.217h3.869v1.183H42.072v2.651H43.79v1.172H42.072v3.05h2.208v1.161Zm8.773,0,.159-9.217h1.741l1.309,6.384,1.366-6.384H55.42l.171,9.217H54.339L54.2-54.417,52.894-48.01H51.881L50.549-54.44l-.125,6.429Zm13.974.125a2.724,2.724,0,0,1-1.388-.324,2.043,2.043,0,0,1-.842-.95,4.08,4.08,0,0,1-.319-1.536l1.445-.284a4.466,4.466,0,0,0,.131.944,1.367,1.367,0,0,0,.33.632.792.792,0,0,0,.586.222.658.658,0,0,0,.58-.245,1.059,1.059,0,0,0,.171-.62,1.677,1.677,0,0,0-.273-.99,4.261,4.261,0,0,0-.728-.774l-1.161-1.024a3.488,3.488,0,0,1-.779-.939,2.587,2.587,0,0,1-.29-1.28,2.185,2.185,0,0,1,.637-1.684,2.458,2.458,0,0,1,1.741-.592,2.584,2.584,0,0,1,1.081.2,1.719,1.719,0,0,1,.688.552,2.489,2.489,0,0,1,.381.8,4.734,4.734,0,0,1,.159.95l-1.434.25a4.889,4.889,0,0,0-.1-.774,1.076,1.076,0,0,0-.262-.535.735.735,0,0,0-.552-.193.7.7,0,0,0-.575.245.933.933,0,0,0-.2.609,1.4,1.4,0,0,0,.193.768,3.008,3.008,0,0,0,.558.62l1.149,1.013a4.761,4.761,0,0,1,.973,1.121,2.861,2.861,0,0,1,.4,1.553,2.336,2.336,0,0,1-.29,1.172,2.079,2.079,0,0,1-.808.8A2.438,2.438,0,0,1,63.135-47.885Z" transform="translate(-2059.305 7992.124)"/><path class="b" d="M4.27-45.931V-56.7H6.238v9.413H8.844v1.356Zm9.32,0V-56.7h1.941v10.769Zm7.3,0L21.075-56.7H23.11l1.529,7.459,1.6-7.459H28.2l.2,10.769H26.939l-.16-7.485L25.25-45.931H24.067l-1.556-7.512-.146,7.512Zm12.8,0V-56.7h1.941v10.769Zm8.4,0v-9.32H40.38V-56.7h5.371v1.449H44.063v9.32Zm8.363,0V-56.7h4.52v1.383H52.426v3.1h2.008v1.369H52.426v3.563h2.579v1.356Zm9.413,0V-56.7h2.539a4.785,4.785,0,0,1,2.054.359,2.093,2.093,0,0,1,1.05,1.1,4.912,4.912,0,0,1,.312,1.888v3.935a5.258,5.258,0,0,1-.312,1.948,2.177,2.177,0,0,1-1.037,1.157,4.333,4.333,0,0,1-1.988.379ZM61.839-47.3h.6a1.543,1.543,0,0,0,.971-.239,1.057,1.057,0,0,0,.359-.7,8.009,8.009,0,0,0,.066-1.123v-4.122a4.785,4.785,0,0,0-.093-1.05.9.9,0,0,0-.386-.585,1.82,1.82,0,0,0-.944-.186h-.572Z" transform="translate(-2060.705 8005.041)"/></g></svg>