<svg xmlns="http://www.w3.org/2000/svg" xmlns:xlink="http://www.w3.org/1999/xlink" width="373.399" height="226.328" viewBox="0 0 373.399 226.328"><defs><style>.a{fill:#257bec;}.a,.b{stroke:rgba(0,0,0,0);}.b{fill:#f9ad1d;}.c{fill:#fff;}.d{filter:url(#c);}.e{filter:url(#a);}</style><filter id="a" x="163.04" y="16.1" width="210.359" height="210.228" filterUnits="userSpaceOnUse"><feOffset dx="-5" dy="10" input="SourceAlpha"/><feGaussianBlur stdDeviation="4" result="b"/><feFlood flood-color="#257bec" flood-opacity="0.2"/><feComposite operator="in" in2="b"/><feComposite in="SourceGraphic"/></filter><filter id="c" x="66.408" y="0" width="58.909" height="58.886" filterUnits="userSpaceOnUse"><feOffset dx="-5" dy="10" input="SourceAlpha"/><feGaussianBlur stdDeviation="4" result="d"/><feFlood flood-color="#f9ad1d" flood-opacity="0.2"/><feComposite operator="in" in2="d"/><feComposite in="SourceGraphic"/></filter></defs><g transform="translate(-93.505 -168.192)"><g transform="translate(274.045 186.792)"><g class="e" transform="matrix(1, 0, 0, 1, -180.54, -18.6)"><path class="a" d="M271.838,178.192q37.488,0,64.307,27.274t26.821,65.279q0,38.647-27.014,65.663T270.286,363.42q-38.39,0-65.535-27.143t-27.145-65.532q0-38.782,27.338-65.668T271.838,178.192Zm-1.552,51.963a36.7,36.7,0,0,0-27.532,11.891,41.8,41.8,0,0,0,.064,57.394q11.441,11.892,27.467,11.891a36.737,36.737,0,0,0,27.6-11.828q11.306-11.828,11.307-28.757t-11.307-28.761A36.736,36.736,0,0,0,270.286,230.155Z" transform="translate(2.93 -159.59)"/></g></g><g transform="translate(177.413 170.692)"><g class="d" transform="matrix(1, 0, 0, 1, -83.91, -2.5)"><path class="b" d="M149.83,170.692a15.911,15.911,0,0,1,11.764,4.991,16.959,16.959,0,1,1-29,11.942,16.218,16.218,0,0,1,5-12.015A16.8,16.8,0,0,1,149.83,170.692Zm-.283,9.508a6.708,6.708,0,0,0-5.036,2.175,7.645,7.645,0,0,0,.011,10.5,6.933,6.933,0,0,0,10.075.011,7.721,7.721,0,0,0,0-10.521A6.715,6.715,0,0,0,149.547,180.2Z" transform="translate(-48.68 -168.19)"/></g></g><g transform="translate(93.505 186.792)"><path class="c" d="M142.319,244.832v33.6H131.4v30.333H93.505V227.753q0-23.519,12.835-36.541t36.073-13.02q22.4,0,33.132,11.807t10.734,36.447v82.32H148.385v-79.8q0-7.467-1.773-10.36t-6.346-2.894q-8.868,0-8.868,13.254v15.866Z" transform="translate(-93.505 -178.192)"/><path class="c" d="M180.148,324.159H145.243V246.506q0-21.371,11.2-34.813a45.836,45.836,0,0,1,16.379-12.32,48.317,48.317,0,0,1,20.394-4.573q20.811,0,35.092,14t14.28,34.347q0,19.787-14.185,34.158T194.8,291.68q-3.175,0-9.334-.653V252.573a13.7,13.7,0,0,0,8.587,3.452,12.453,12.453,0,0,0,9.287-4.012,13.241,13.241,0,0,0,3.875-9.521,12.56,12.56,0,0,0-4.014-9.379,13.351,13.351,0,0,0-9.613-3.873q-13.44,0-13.44,18.573Z" transform="translate(-34.177 -159.146)"/><path class="c" d="M231.669,324.159H196.764V246.506q0-21.371,11.2-34.813a45.843,45.843,0,0,1,16.381-12.32,48.308,48.308,0,0,1,20.391-4.573q20.811,0,35.094,14t14.28,34.347q0,19.787-14.188,34.158t-33.6,14.374q-3.175,0-9.334-.653V252.573a13.693,13.693,0,0,0,8.587,3.452,12.448,12.448,0,0,0,9.285-4.012,13.241,13.241,0,0,0,3.875-9.521,12.559,12.559,0,0,0-4.012-9.379,13.355,13.355,0,0,0-9.613-3.873q-13.441,0-13.44,18.573Z" transform="translate(24.902 -159.146)"/></g></g></svg>